<?xml version="1.0" encoding="UTF-8"?>
<svg width="1200" height="720" viewBox="0 0 1200 720" xmlns="http://www.w3.org/2000/svg">
  <defs>
    <style>
      .bg { fill: #050014; }
      .title { fill: #f5d0fe; font: 700 22px Arial, sans-serif; }
      .label { fill: #e879f9; font: 700 16px Arial, sans-serif; }
      .small { fill: #c084fc; font: 14px Arial, sans-serif; }
      .micro { fill: #c084fc; font: 12px Arial, sans-serif; opacity: 0.95; }

      .boundary { fill: none; stroke: #a855f7; stroke-width: 2.5; opacity: 0.75; }
      .boundaryInner { fill: none; stroke: #7e22ce; stroke-width: 1.8; opacity: 0.55; }

      .edge { stroke: #7e22ce; stroke-width: 1.25; opacity: 0.23; }
      .edgeStrong { stroke: #d946ef; stroke-width: 1.6; opacity: 0.25; }

      .node { fill: #d946ef; }
      .nodeSmall { fill: #a855f7; }

      .glyphStroke { stroke: #f5d0fe; stroke-width: 4; fill: none; stroke-linecap: round; stroke-linejoin: round; opacity: 0.9; }
      .glyphFill { fill: #f5d0fe; opacity: 0.92; }
    </style>
  </defs>

  <rect x="0" y="0" width="1200" height="720" class="bg"/>

  <!-- Title -->
  <text x="600" y="48" text-anchor="middle" class="title">
    Nested Recursive Adjacency Example: O8CC  →  O8CCxx2
  </text>

  <!-- =========================
       LEFT PANEL: O8CC (K8)
       ========================= -->
  <text x="240" y="105" text-anchor="middle" class="label">O8CC</text>
  <text x="240" y="130" text-anchor="middle" class="small">K₈ complete graph inside an octagon boundary</text>

  <!-- Left octagon boundary -->
  <polygon class="boundary"
    points="
      240,165
      315,196
      346,271
      315,346
      240,377
      165,346
      134,271
      165,196
    "/>

  <!-- Left K8 nodes (8 vertices on ring) -->
  <!-- Node coordinates (same as octagon vertices but slightly inset) -->
  <!-- Inset ring -->
  <g id="leftK8">
    <!-- Complete graph edges -->
    <!-- From p0 -->
    <line x1="240" y1="180" x2="302" y2="206" class="edgeStrong"/>
    <line x1="240" y1="180" x2="328" y2="268" class="edgeStrong"/>
    <line x1="240" y1="180" x2="302" y2="330" class="edgeStrong"/>
    <line x1="240" y1="180" x2="240" y2="356" class="edgeStrong"/>
    <line x1="240" y1="180" x2="178" y2="330" class="edgeStrong"/>
    <line x1="240" y1="180" x2="152" y2="268" class="edgeStrong"/>
    <line x1="240" y1="180" x2="178" y2="206" class="edgeStrong"/>

    <!-- From p1 -->
    <line x1="302" y1="206" x2="328" y2="268" class="edge"/>
    <line x1="302" y1="206" x2="302" y2="330" class="edge"/>
    <line x1="302" y1="206" x2="240" y2="356" class="edge"/>
    <line x1="302" y1="206" x2="178" y2="330" class="edge"/>
    <line x1="302" y1="206" x2="152" y2="268" class="edge"/>
    <line x1="302" y1="206" x2="178" y2="206" class="edge"/>

    <!-- From p2 -->
    <line x1="328" y1="268" x2="302" y2="330" class="edge"/>
    <line x1="328" y1="268" x2="240" y2="356" class="edge"/>
    <line x1="328" y1="268" x2="178" y2="330" class="edge"/>
    <line x1="328" y1="268" x2="152" y2="268" class="edge"/>
    <line x1="328" y1="268" x2="178" y2="206" class="edge"/>

    <!-- From p3 -->
    <line x1="302" y1="330" x2="240" y2="356" class="edge"/>
    <line x1="302" y1="330" x2="178" y2="330" class="edge"/>
    <line x1="302" y1="330" x2="152" y2="268" class="edge"/>
    <line x1="302" y1="330" x2="178" y2="206" class="edge"/>

    <!-- From p4 -->
    <line x1="240" y1="356" x2="178" y2="330" class="edge"/>
    <line x1="240" y1="356" x2="152" y2="268" class="edge"/>
    <line x1="240" y1="356" x2="178" y2="206" class="edge"/>

    <!-- From p5 -->
    <line x1="178" y1="330" x2="152" y2="268" class="edge"/>
    <line x1="178" y1="330" x2="178" y2="206" class="edge"/>

    <!-- From p6 -->
    <line x1="152" y1="268" x2="178" y2="206" class="edge"/>

    <!-- nodes -->
    <circle cx="240" cy="180" r="5.8" class="node"/>
    <circle cx="302" cy="206" r="5.8" class="node"/>
    <circle cx="328" cy="268" r="5.8" class="node"/>
    <circle cx="302" cy="330" r="5.8" class="node"/>
    <circle cx="240" cy="356" r="5.8" class="node"/>
    <circle cx="178" cy="330" r="5.8" class="node"/>
    <circle cx="152" cy="268" r="5.8" class="node"/>
    <circle cx="178" cy="206" r="5.8" class="node"/>
  </g>

  <text x="240" y="420" text-anchor="middle" class="micro">
    Local adjacency: |E| = 8·7/2 = 28
  </text>

  <!-- =========================
       CENTER GLYPH: quadratic expansion
       ========================= -->
  <text x="600" y="190" text-anchor="middle" class="label">Quadratic expansion</text>
  <text x="600" y="215" text-anchor="middle" class="small">O8CC  →  O8CCxx2 (K₈ → K₈²)</text>

  <!-- Arrow-like glyph with "²" hint -->
  <g transform="translate(0,0)">
    <!-- main arrow body -->
    <path class="glyphStroke" d="M460 300 C520 300, 560 300, 610 300 C660 300, 700 300, 740 300"/>
    <!-- arrow head -->
    <polygon class="glyphFill" points="740,300 718,288 718,312"/>
    <!-- nested chevrons indicating 'expansion' -->
    <path class="glyphStroke" d="M560 270 L590 300 L560 330" />
    <path class="glyphStroke" d="M620 270 L650 300 L620 330" />
    <!-- exponent marker -->
    <text x="690" y="270" class="label">²</text>
  </g>

  <!-- =========================
       RIGHT PANEL: O8CCxx2 (K8^2), aligned and fully inside
       ========================= -->
  <text x="960" y="105" text-anchor="middle" class="label">O8CCxx2</text>
  <text x="960" y="130" text-anchor="middle" class="small">K₈²: eight K₈ clusters nested into a whole</text>

  <!-- Right big octagon boundary -->
  <polygon class="boundary"
    points="
      960,150
      1090,204
      1144,334
      1090,464
      960,518
      830,464
      776,334
      830,204
    "/>

  <!-- Adjusted subcluster positions perfectly aligned to cardinal and diagonal octagon vertices, fully inside -->
  <!-- Cardinal offsets small octagons radius ~40 for safe margin -->

  <!-- Centers on vertices but inset radius 40 so full octagon (radius 40) stays inside main (radius ~90) -->
  <!-- Octagon main radius ~92 in x/y directions from centerpoints -->

  <g id="subclusters">
    <!-- Sub 0 (top) at (960,190) -->
    <g transform="translate(960,190)">
      <polygon class="boundaryInner"
        points="0,-40 28,-28 40,0 28,28 0,40 -28,28 -40,0 -28,-28"/>
      <line x1="0" y1="-32" x2="40" y2="0" class="edge"/>
      <line x1="0" y1="-32" x2="0" y2="32" class="edge"/>
      <line x1="28" y1="-22" x2="-28" y2="22" class="edge"/>
      <line x1="40" y1="0" x2="-40" y2="0" class="edge"/>
      <circle cx="0" cy="-32" r="3.8" class="nodeSmall"/>
      <circle cx="22" cy="-22" r="3.8" class="nodeSmall"/>
      <circle cx="32" cy="0" r="3.8" class="nodeSmall"/>
      <circle cx="22" cy="22" r="3.8" class="nodeSmall"/>
      <circle cx="0" cy="32" r="3.8" class="nodeSmall"/>
      <circle cx="-22" cy="22" r="3.8" class="nodeSmall"/>
      <circle cx="-32" cy="0" r="3.8" class="nodeSmall"/>
      <circle cx="-22" cy="-22" r="3.8" class="nodeSmall"/>
    </g>

    <!-- Sub 1 (top-right) at (1050,230) -->
    <g transform="translate(1050,230)">
      <polygon class="boundaryInner"
        points="0,-40 28,-28 40,0 28,28 0,40 -28,28 -40,0 -28,-28"/>
      <line x1="0" y1="-32" x2="40" y2="0" class="edge"/>
      <line x1="0" y1="-32" x2="0" y2="32" class="edge"/>
      <line x1="28" y1="-22" x2="-28" y2="22" class="edge"/>
      <line x1="40" y1="0" x2="-40" y2="0" class="edge"/>
      <circle cx="0" cy="-32" r="3.8" class="nodeSmall"/>
      <circle cx="22" cy="-22" r="3.8" class="nodeSmall"/>
      <circle cx="32" cy="0" r="3.8" class="nodeSmall"/>
      <circle cx="22" cy="22" r="3.8" class="nodeSmall"/>
      <circle cx="0" cy="32" r="3.8" class="nodeSmall"/>
      <circle cx="-22" cy="22" r="3.8" class="nodeSmall"/>
      <circle cx="-32" cy="0" r="3.8" class="nodeSmall"/>
      <circle cx="-22" cy="-22" r="3.8" class="nodeSmall"/>
    </g>

    <!-- Sub 2 (right) at (1090,334) (kept same, centered) -->
    <g transform="translate(1090,334)">
      <polygon class="boundaryInner"
        points="0,-40 28,-28 40,0 28,28 0,40 -28,28 -40,0 -28,-28"/>
      <line x1="0" y1="-32" x2="40" y2="0" class="edge"/>
      <line x1="0" y1="-32" x2="0" y2="32" class="edge"/>
      <line x1="28" y1="-22" x2="-28" y2="22" class="edge"/>
      <line x1="40" y1="0" x2="-40" y2="0" class="edge"/>
      <circle cx="0" cy="-32" r="3.8" class="nodeSmall"/>
      <circle cx="22" cy="-22" r="3.8" class="nodeSmall"/>
      <circle cx="32" cy="0" r="3.8" class="nodeSmall"/>
      <circle cx="22" cy="22" r="3.8" class="nodeSmall"/>
      <circle cx="0" cy="32" r="3.8" class="nodeSmall"/>
      <circle cx="-22" cy="22" r="3.8" class="nodeSmall"/>
      <circle cx="-32" cy="0" r="3.8" class="nodeSmall"/>
      <circle cx="-22" cy="-22" r="3.8" class="nodeSmall"/>
    </g>

    <!-- Sub 3 (bottom-right) at (1050,438) -->
    <g transform="translate(1050,438)">
      <polygon class="boundaryInner"
        points="0,-40 28,-28 40,0 28,28 0,40 -28,28 -40,0 -28,-28"/>
      <line x1="0" y1="-32" x2="40" y2="0" class="edge"/>
      <line x1="0" y1="-32" x2="0" y2="32" class="edge"/>
      <line x1="28" y1="-22" x2="-28" y2="22" class="edge"/>
      <line x1="40" y1="0" x2="-40" y2="0" class="edge"/>
      <circle cx="0" cy="-32" r="3.8" class="nodeSmall"/>
      <circle cx="22" cy="-22" r="3.8" class="nodeSmall"/>
      <circle cx="32" cy="0" r="3.8" class="nodeSmall"/>
      <circle cx="22" cy="22" r="3.8" class="nodeSmall"/>
      <circle cx="0" cy="32" r="3.8" class="nodeSmall"/>
      <circle cx="-22" cy="22" r="3.8" class="nodeSmall"/>
      <circle cx="-32" cy="0" r="3.8" class="nodeSmall"/>
      <circle cx="-22" cy="-22" r="3.8" class="nodeSmall"/>
    </g>

    <!-- Sub 4 (bottom) at (960,478) -->
    <g transform="translate(960,478)">
      <polygon class="boundaryInner"
        points="0,-40 28,-28 40,0 28,28 0,40 -28,28 -40,0 -28,-28"/>
      <line x1="0" y1="-32" x2="40" y2="0" class="edge"/>
      <line x1="0" y1="-32" x2="0" y2="32" class="edge"/>
      <line x1="28" y1="-22" x2="-28" y2="22" class="edge"/>
      <line x1="40" y1="0" x2="-40" y2="0" class="edge"/>
      <circle cx="0" cy="-32" r="3.8" class="nodeSmall"/>
      <circle cx="22" cy="-22" r="3.8" class="nodeSmall"/>
      <circle cx="32" cy="0" r="3.8" class="nodeSmall"/>
      <circle cx="22" cy="22" r="3.8" class="nodeSmall"/>
      <circle cx="0" cy="32" r="3.8" class="nodeSmall"/>
      <circle cx="-22" cy="22" r="3.8" class="nodeSmall"/>
      <circle cx="-32" cy="0" r="3.8" class="nodeSmall"/>
      <circle cx="-22" cy="-22" r="3.8" class="nodeSmall"/>
    </g>

    <!-- Sub 5 (bottom-left) at (870,438) -->
    <g transform="translate(870,438)">
      <polygon class="boundaryInner"
        points="0,-40 28,-28 40,0 28,28 0,40 -28,28 -40,0 -28,-28"/>
      <line x1="0" y1="-32" x2="40" y2="0" class="edge"/>
      <line x1="0" y1="-32" x2="0" y2="32" class="edge"/>
      <line x1="28" y1="-22" x2="-28" y2="22" class="edge"/>
      <line x1="40" y1="0" x2="-40" y2="0" class="edge"/>
      <circle cx="0" cy="-32" r="3.8" class="nodeSmall"/>
      <circle cx="22" cy="-22" r="3.8" class="nodeSmall"/>
      <circle cx="32" cy="0" r="3.8" class="nodeSmall"/>
      <circle cx="22" cy="22" r="3.8" class="nodeSmall"/>
      <circle cx="0" cy="32" r="3.8" class="nodeSmall"/>
      <circle cx="-22" cy="22" r="3.8" class="nodeSmall"/>
      <circle cx="-32" cy="0" r="3.8" class="nodeSmall"/>
      <circle cx="-22" cy="-22" r="3.8" class="nodeSmall"/>
    </g>

    <!-- Sub 6 (left) at (830,334) (same center) -->
    <g transform="translate(830,334)">
      <polygon class="boundaryInner"
        points="0,-40 28,-28 40,0 28,28 0,40 -28,28 -40,0 -28,-28"/>
      <line x1="0" y1="-32" x2="40" y2="0" class="edge"/>
      <line x1="0" y1="-32" x2="0" y2="32" class="edge"/>
      <line x1="28" y1="-22" x2="-28" y2="22" class="edge"/>
      <line x1="40" y1="0" x2="-40" y2="0" class="edge"/>
      <circle cx="0" cy="-32" r="3.8" class="nodeSmall"/>
      <circle cx="22" cy="-22" r="3.8" class="nodeSmall"/>
      <circle cx="32" cy="0" r="3.8" class="nodeSmall"/>
      <circle cx="22" cy="22" r="3.8" class="nodeSmall"/>
      <circle cx="0" cy="32" r="3.8" class="nodeSmall"/>
      <circle cx="-22" cy="22" r="3.8" class="nodeSmall"/>
      <circle cx="-32" cy="0" r="3.8" class="nodeSmall"/>
      <circle cx="-22" cy="-22" r="3.8" class="nodeSmall"/>
    </g>

    <!-- Sub 7 (top-left) at (870,230) -->
    <g transform="translate(870,230)">
      <polygon class="boundaryInner"
        points="0,-40 28,-28 40,0 28,28 0,40 -28,28 -40,0 -28,-28"/>
      <line x1="0" y1="-32" x2="40" y2="0" class="edge"/>
      <line x1="0" y1="-32" x2="0" y2="32" class="edge"/>
      <line x1="28" y1="-22" x2="-28" y2="22" class="edge"/>
      <line x1="40" y1="0" x2="-40" y2="0" class="edge"/>
      <circle cx="0" cy="-32" r="3.8" class="nodeSmall"/>
      <circle cx="22" cy="-22" r="3.8" class="nodeSmall"/>
      <circle cx="32" cy="0" r="3.8" class="nodeSmall"/>
      <circle cx="22" cy="22" r="3.8" class="nodeSmall"/>
      <circle cx="0" cy="32" r="3.8" class="nodeSmall"/>
      <circle cx="-22" cy="22" r="3.8" class="nodeSmall"/>
      <circle cx="-32" cy="0" r="3.8" class="nodeSmall"/>
      <circle cx="-22" cy="-22" r="3.8" class="nodeSmall"/>
    </g>
  </g>

  <!-- Right panel explanatory labels -->
  <text x="960" y="570" text-anchor="middle" class="micro">
    Whole boundary: octagon (global container)
  </text>
  <text x="960" y="592" text-anchor="middle" class="micro">
    Inside: 8 embedded K₈ clusters (each with its own octagon boundary)
  </text>

  <!-- Bottom legend -->
  <text x="60" y="655" class="small">Legend:</text>
  <circle cx="120" cy="650" r="6" class="node"/>
  <text x="135" y="655" class="micro">K₈ node (O8CC)</text>
  <circle cx="320" cy="650" r="5" class="nodeSmall"/>
  <text x="335" y="655" class="micro">Nested K₈ node (O8CCxx2 subcluster)</text>
  <line x1="560" y1="650" x2="610" y2="650" class="edgeStrong"/>
  <text x="620" y="655" class="micro">Clique edges (implied complete)</text>

  <!-- Alt text / accessibility -->
  <desc>
    Two-panel diagram. Left: O8CC shown as an octagon boundary containing a K8 complete graph (eight nodes on a ring with dense chords).
    Center: arrow-like glyph with chevrons and a superscript 2 indicating quadratic expansion.
    Right: O8CCxx2 shown as a larger octagon boundary containing eight smaller octagon subclusters arranged on an inner octagon ring, each perfectly aligned and fully inside on the cardinal and diagonal octagon vertex positions; each subcluster implies a K8 complete graph.
  </desc>
</svg>
